<svg width="400" height="400" viewBox="0 0 400 400" fill="none" xmlns="http://www.w3.org/2000/svg">
<path fill-rule="evenodd" clip-rule="evenodd" d="M80 86V256.625H149.258C170.039 256.469 185.703 252.211 196.25 243.852C206.875 235.414 212.188 222.836 212.188 206.117C212.188 196.898 209.805 189.086 205.039 182.68C200.273 176.273 193.438 171.898 184.531 169.555C192.422 166.586 198.398 161.977 202.461 155.727C206.523 149.477 208.555 141.938 208.555 133.109C208.555 117.797 202.812 106.117 191.328 98.0703C179.922 90.0234 163.242 86 141.289 86H80ZM121.133 224.984V184.086H149.961C164.102 184.164 171.172 191.312 171.172 205.531C171.172 211.703 169.18 216.508 165.195 219.945C161.211 223.305 155.508 224.984 148.086 224.984H121.133ZM142.578 157.133H121.133V117.758H141.289C150.508 117.758 157.188 119.359 161.328 122.562C165.469 125.688 167.539 130.844 167.539 138.031C167.539 144.281 165.625 149.008 161.797 152.211C157.969 155.414 151.562 157.055 142.578 157.133ZM243.203 265.578H224.336L216.484 313.625H193.164L201.016 265.578H175V260.022C191.868 256.017 209.281 246.065 215 227C219.5 212 219 204.5 216.5 193C215.977 190.595 215.149 188.331 214.12 186.22L221.289 143H244.492L236.523 191.75H255.391L263.477 143H286.797L278.711 191.75H305.781V213.195H275.195L270.039 244.133H296.875V265.578H266.523L258.672 313.625H235.352L243.203 265.578ZM227.852 244.133H246.719L251.875 213.195H233.008L227.852 244.133Z" fill="black"/>
</svg>
