<svg width="400" height="400" viewBox="0 0 400 400" fill="none" xmlns="http://www.w3.org/2000/svg">
<mask id="path-1-outside-1" maskUnits="userSpaceOnUse" x="75" y="81" width="236" height="238" fill="black">
<rect fill="white" x="75" y="81" width="236" height="238"/>
<path fill-rule="evenodd" clip-rule="evenodd" d="M80 86V256.625H149.258C170.039 256.469 185.703 252.211 196.25 243.852C206.875 235.414 212.188 222.836 212.188 206.117C212.188 196.898 209.805 189.086 205.039 182.68C200.273 176.273 193.438 171.898 184.531 169.555C192.422 166.586 198.398 161.977 202.461 155.727C206.523 149.477 208.555 141.938 208.555 133.109C208.555 117.797 202.812 106.117 191.328 98.0703C179.922 90.0234 163.242 86 141.289 86H80ZM121.133 224.984V184.086H149.961C164.102 184.164 171.172 191.312 171.172 205.531C171.172 211.703 169.18 216.508 165.195 219.945C161.211 223.305 155.508 224.984 148.086 224.984H121.133ZM142.578 157.133H121.133V117.758H141.289C150.508 117.758 157.188 119.359 161.328 122.562C165.469 125.688 167.539 130.844 167.539 138.031C167.539 144.281 165.625 149.008 161.797 152.211C157.969 155.414 151.562 157.055 142.578 157.133ZM243.203 265.578H224.336L216.484 313.625H193.164L201.016 265.578H175V260.022C191.868 256.017 209.281 246.065 215 227C219.5 212 219 204.5 216.5 193C215.977 190.595 215.149 188.331 214.12 186.22L221.289 143H244.492L236.523 191.75H255.391L263.477 143H286.797L278.711 191.75H305.781V213.195H275.195L270.039 244.133H296.875V265.578H266.523L258.672 313.625H235.352L243.203 265.578ZM227.852 244.133H246.719L251.875 213.195H233.008L227.852 244.133Z"/>
</mask>
<path fill-rule="evenodd" clip-rule="evenodd" d="M80 86V256.625H149.258C170.039 256.469 185.703 252.211 196.25 243.852C206.875 235.414 212.188 222.836 212.188 206.117C212.188 196.898 209.805 189.086 205.039 182.68C200.273 176.273 193.438 171.898 184.531 169.555C192.422 166.586 198.398 161.977 202.461 155.727C206.523 149.477 208.555 141.938 208.555 133.109C208.555 117.797 202.812 106.117 191.328 98.0703C179.922 90.0234 163.242 86 141.289 86H80ZM121.133 224.984V184.086H149.961C164.102 184.164 171.172 191.312 171.172 205.531C171.172 211.703 169.18 216.508 165.195 219.945C161.211 223.305 155.508 224.984 148.086 224.984H121.133ZM142.578 157.133H121.133V117.758H141.289C150.508 117.758 157.188 119.359 161.328 122.562C165.469 125.688 167.539 130.844 167.539 138.031C167.539 144.281 165.625 149.008 161.797 152.211C157.969 155.414 151.562 157.055 142.578 157.133ZM243.203 265.578H224.336L216.484 313.625H193.164L201.016 265.578H175V260.022C191.868 256.017 209.281 246.065 215 227C219.5 212 219 204.5 216.5 193C215.977 190.595 215.149 188.331 214.12 186.22L221.289 143H244.492L236.523 191.75H255.391L263.477 143H286.797L278.711 191.75H305.781V213.195H275.195L270.039 244.133H296.875V265.578H266.523L258.672 313.625H235.352L243.203 265.578ZM227.852 244.133H246.719L251.875 213.195H233.008L227.852 244.133Z" fill="black"/>
<path d="M80 256.625H75V261.625H80V256.625ZM80 86V81H75V86H80ZM149.258 256.625V261.625H149.277L149.295 261.625L149.258 256.625ZM196.25 243.852L199.356 247.77L199.359 247.767L196.25 243.852ZM184.531 169.555L182.771 164.875L168.09 170.398L183.259 174.39L184.531 169.555ZM191.328 98.0703L188.446 102.156L188.452 102.161L188.459 102.165L191.328 98.0703ZM121.133 184.086V179.086H116.133V184.086H121.133ZM121.133 224.984H116.133V229.984H121.133V224.984ZM149.961 184.086L149.989 179.086L149.975 179.086H149.961V184.086ZM165.195 219.945L168.418 223.768L168.44 223.75L168.461 223.731L165.195 219.945ZM121.133 157.133H116.133V162.133H121.133V157.133ZM142.578 157.133V162.133H142.6L142.622 162.133L142.578 157.133ZM121.133 117.758V112.758H116.133V117.758H121.133ZM161.328 122.562L158.269 126.517L158.292 126.536L158.316 126.553L161.328 122.562ZM224.336 265.578V260.578H220.087L219.401 264.772L224.336 265.578ZM243.203 265.578L248.138 266.385L249.087 260.578H243.203V265.578ZM216.484 313.625V318.625H220.734L221.419 314.431L216.484 313.625ZM193.164 313.625L188.23 312.819L187.281 318.625H193.164V313.625ZM201.016 265.578L205.95 266.385L206.899 260.578H201.016V265.578ZM175 265.578H170V270.578H175V265.578ZM175 260.022L173.845 255.157L170 256.07V260.022H175ZM215 227L219.789 228.437L219.789 228.437L215 227ZM216.5 193L211.614 194.062L211.614 194.062L216.5 193ZM214.12 186.22L209.188 185.402L208.927 186.975L209.625 188.409L214.12 186.22ZM221.289 143V138H217.05L216.356 142.182L221.289 143ZM244.492 143L249.427 143.807L250.376 138H244.492V143ZM236.523 191.75L231.589 190.943L230.64 196.75H236.523V191.75ZM255.391 191.75V196.75H259.63L260.323 192.568L255.391 191.75ZM263.477 143V138H259.238L258.544 142.182L263.477 143ZM286.797 143L291.729 143.818L292.695 138H286.797V143ZM278.711 191.75L273.778 190.932L272.813 196.75H278.711V191.75ZM305.781 191.75H310.781V186.75H305.781V191.75ZM305.781 213.195V218.195H310.781V213.195H305.781ZM275.195 213.195V208.195H270.96L270.263 212.373L275.195 213.195ZM270.039 244.133L265.107 243.311L264.137 249.133H270.039V244.133ZM296.875 244.133H301.875V239.133H296.875V244.133ZM296.875 265.578V270.578H301.875V265.578H296.875ZM266.523 265.578V260.578H262.274L261.589 264.772L266.523 265.578ZM258.672 313.625V318.625H262.921L263.606 314.431L258.672 313.625ZM235.352 313.625L230.417 312.819L229.468 318.625H235.352V313.625ZM246.719 244.133V249.133H250.954L251.651 244.955L246.719 244.133ZM227.852 244.133L222.92 243.311L221.949 249.133H227.852V244.133ZM251.875 213.195L256.807 214.017L257.777 208.195H251.875V213.195ZM233.008 213.195V208.195H228.772L228.076 212.373L233.008 213.195ZM85 256.625V86H75V256.625H85ZM149.258 251.625H80V261.625H149.258V251.625ZM193.144 239.933C183.833 247.313 169.459 251.473 149.22 251.625L149.295 261.625C170.619 261.465 187.573 257.109 199.356 247.77L193.144 239.933ZM207.188 206.117C207.188 221.701 202.295 232.666 193.141 239.936L199.359 247.767C211.455 238.162 217.188 223.97 217.188 206.117H207.188ZM201.027 185.664C205.055 191.079 207.188 197.801 207.188 206.117H217.188C217.188 195.996 214.554 187.093 209.051 179.695L201.027 185.664ZM183.259 174.39C191.245 176.492 197.04 180.304 201.027 185.664L209.051 179.695C203.507 172.243 195.63 167.305 185.804 164.719L183.259 174.39ZM198.269 153.002C194.862 158.242 189.8 162.23 182.771 164.875L186.292 174.234C195.044 170.941 201.935 165.711 206.653 158.452L198.269 153.002ZM203.555 133.109C203.555 141.151 201.713 147.702 198.269 153.002L206.653 158.452C211.334 151.251 213.555 142.724 213.555 133.109H203.555ZM188.459 102.165C198.47 109.18 203.555 119.252 203.555 133.109H213.555C213.555 116.342 207.155 103.055 194.197 93.9755L188.459 102.165ZM141.289 91C162.758 91 178.241 94.9565 188.446 102.156L194.21 93.9847C181.603 85.0904 163.727 81 141.289 81V91ZM80 91H141.289V81H80V91ZM116.133 184.086V224.984H126.133V184.086H116.133ZM149.961 179.086H121.133V189.086H149.961V179.086ZM176.172 205.531C176.172 197.656 174.211 190.83 169.424 185.99C164.632 181.145 157.839 179.129 149.989 179.086L149.933 189.086C156.224 189.121 160.036 190.718 162.314 193.022C164.598 195.331 166.172 199.188 166.172 205.531H176.172ZM168.461 223.731C173.741 219.176 176.172 212.88 176.172 205.531H166.172C166.172 210.527 164.619 213.839 161.929 216.16L168.461 223.731ZM148.086 229.984C156.195 229.984 163.216 228.154 168.418 223.768L161.972 216.123C159.206 218.455 154.82 219.984 148.086 219.984V229.984ZM121.133 229.984H148.086V219.984H121.133V229.984ZM121.133 162.133H142.578V152.133H121.133V162.133ZM116.133 117.758V157.133H126.133V117.758H116.133ZM141.289 112.758H121.133V122.758H141.289V112.758ZM164.387 118.608C158.92 114.378 150.864 112.758 141.289 112.758V122.758C150.152 122.758 155.455 124.34 158.269 126.517L164.387 118.608ZM172.539 138.031C172.539 129.921 170.171 122.972 164.34 118.572L158.316 126.553C160.766 128.403 162.539 131.766 162.539 138.031H172.539ZM165.005 156.046C170.247 151.66 172.539 145.356 172.539 138.031H162.539C162.539 143.207 161.003 146.356 158.588 148.376L165.005 156.046ZM142.622 162.133C151.94 162.052 159.815 160.389 165.005 156.046L158.588 148.376C156.123 150.439 151.185 152.058 142.535 152.133L142.622 162.133ZM224.336 270.578H243.203V260.578H224.336V270.578ZM221.419 314.431L229.27 266.385L219.401 264.772L211.55 312.819L221.419 314.431ZM193.164 318.625H216.484V308.625H193.164V318.625ZM196.081 264.772L188.23 312.819L198.099 314.431L205.95 266.385L196.081 264.772ZM175 270.578H201.016V260.578H175V270.578ZM170 260.022V265.578H180V260.022H170ZM210.211 225.563C205.23 242.165 189.91 251.343 173.845 255.157L176.155 264.887C193.826 260.691 213.331 249.964 219.789 228.437L210.211 225.563ZM211.614 194.062C212.833 199.668 213.487 203.967 213.376 208.567C213.266 213.167 212.381 218.33 210.211 225.563L219.789 228.437C222.119 220.67 223.234 214.583 223.374 208.808C223.513 203.033 222.667 197.832 221.386 191.938L211.614 194.062ZM209.625 188.409C210.501 190.207 211.186 192.094 211.614 194.062L221.386 191.938C220.768 189.097 219.797 186.456 218.616 184.031L209.625 188.409ZM216.356 142.182L209.188 185.402L219.053 187.038L226.222 143.818L216.356 142.182ZM244.492 138H221.289V148H244.492V138ZM241.458 192.557L249.427 143.807L239.558 142.193L231.589 190.943L241.458 192.557ZM255.391 186.75H236.523V196.75H255.391V186.75ZM258.544 142.182L250.458 190.932L260.323 192.568L268.409 143.818L258.544 142.182ZM286.797 138H263.477V148H286.797V138ZM283.644 192.568L291.729 143.818L281.864 142.182L273.778 190.932L283.644 192.568ZM305.781 186.75H278.711V196.75H305.781V186.75ZM310.781 213.195V191.75H300.781V213.195H310.781ZM275.195 218.195H305.781V208.195H275.195V218.195ZM274.971 244.955L280.127 214.017L270.263 212.373L265.107 243.311L274.971 244.955ZM296.875 239.133H270.039V249.133H296.875V239.133ZM301.875 265.578V244.133H291.875V265.578H301.875ZM266.523 270.578H296.875V260.578H266.523V270.578ZM263.606 314.431L271.458 266.385L261.589 264.772L253.737 312.819L263.606 314.431ZM235.352 318.625H258.672V308.625H235.352V318.625ZM238.269 264.772L230.417 312.819L240.286 314.431L248.138 266.385L238.269 264.772ZM246.719 239.133H227.852V249.133H246.719V239.133ZM246.943 212.373L241.787 243.311L251.651 244.955L256.807 214.017L246.943 212.373ZM233.008 218.195H251.875V208.195H233.008V218.195ZM232.784 244.955L237.94 214.017L228.076 212.373L222.92 243.311L232.784 244.955Z" fill="white" mask="url(#path-1-outside-1)"/>
</svg>
